# xmcd
#
# Track frame offsets: 
#        150
#        14413
#        26163
#        36010
#        54733
#        72202
#        82308
#        94621
#        105734
#        115993
#        125368
#
# Disc length: 1814 seconds
#
# Revision: 0
# Processed by: cddbd v1.5.2PL0 Copyright (c) Steve Scherf et al.
# Submitted via: ExactAudioCopy v1.3
#
DISCID=9407140b
DTITLE=Lynn Anderson - Cry
DYEAR=1972
DGENRE=Country, Pop
TTITLE0=Cry
TTITLE1=Never Ending Song Of Love
TTITLE2=Ask Any Woman
TTITLE3=Bed Time Story
TTITLE4=I Won't Mention It Again
TTITLE5=Tonight My Baby's Coming Home
TTITLE6=Cotton Jenny
TTITLE7=Kiss Away
TTITLE8=When You Say Love
TTITLE9=We Can Make It
TTITLE10=We've Got To Get It On Again
EXTD=
EXTT0=
EXTT1=
EXTT2=
EXTT3=
EXTT4=
EXTT5=
EXTT6=
EXTT7=
EXTT8=
EXTT9=
EXTT10=
PLAYORDER=
